# xmcd
#
# Track frame offsets: 
#        150
#        11766
#        21797
#        36056
#        47695
#        57585
#        70106
#        86279
#        103345
#        115642
#        129515
#        144914
#
# Disc length: 2039 seconds
#
# Revision: 0
# Processed by: cddbd v1.5.2PL0 Copyright (c) Steve Scherf et al.
# Submitted via: ExactAudioCopy v1.0b1
#
DISCID=9a07f50c
DTITLE=David Allan Coe and Willie Nelson - Outlaws
DYEAR=1976
DGENRE=Country
TTITLE0=What A Way To Live
TTITLE1=Misery Mansion
TTITLE2=Rainy Day Blues
TTITLE3=Night Life
TTITLE4=Man With The Blues
TTITLE5=The Storm Has Just Begun
TTITLE6=Got You On My Mind
TTITLE7=These Days
TTITLE8=Mississippi Woman
TTITLE9=Why You Been Gone So Long
TTITLE10=Mary Magdelene
TTITLE11=West Virginia Man
EXTD=
EXTT0=
EXTT1=
EXTT2=
EXTT3=
EXTT4=
EXTT5=
EXTT6=
EXTT7=
EXTT8=
EXTT9=
EXTT10=
EXTT11=
PLAYORDER=
